PathFileType	4	(X/Y/Z)	C:\Users\WrightLab\Desktop\Jo\P5V19.trc
DataRate	CameraRate	NumFrames	NumMarkers	Units	OrigDataRate	OrigDataStartFrame	OrigNumFrames
100.00	100.00	       23	19	mm	100.00	529	       705
Frame#	Time	Headset_Front			Headset_Back			Headset_Left			Headset_Right			Left_Shoulder			Right_Shoulder			Sternum			C7			Left Elbow			Right Elbow			Left Wrist			Right Wrist			Left ASIS			Right ASIS			S2			Left Knee			Right Knee			Left Ankle			Right Ankle			
		X1	Y1	Z1	X2	Y2	Z2	X3	Y3	Z3	X4	Y4	Z4	X5	Y5	Z5	X6	Y6	Z6	X7	Y7	Z7	X8	Y8	Z8	X9	Y9	Z9	X10	Y10	Z10	X11	Y11	Z11	X12	Y12	Z12	X13	Y13	Z13	X14	Y14	Z14	X15	Y15	Z15	X16	Y16	Z16	X17	Y17	Z17	X18	Y18	Z18	X19	Y19	Z19	

529	5.280																															-389.09937	1132.59912	1468.69446				-455.11807	951.96411	1558.13867				-747.87500	999.07599	1470.88879	-540.86938	499.16302	1521.78809				-754.01111	143.69257	1370.14221				
530	5.290																															-386.88828	1131.02930	1471.94360				-449.79434	950.35529	1563.65515				-746.50916	997.29565	1481.34546	-537.83319	499.12122	1531.26636				-752.08496	147.78070	1373.36780				
531	5.300																															-384.51324	1129.97852	1476.62830				-444.33749	949.47137	1569.88904				-743.46344	994.96790	1492.64502	-535.53223	497.52106	1540.54382				-749.27344	153.02347	1378.40149				
532	5.310																															-381.87024	1128.97217	1480.91321				-438.14063	948.84607	1576.84729				-740.44214	993.28882	1503.90076	-531.33124	496.82422	1551.69031				-746.66284	159.48553	1383.33862				
533	5.320																															-380.59085	1128.04968	1485.24060				-433.24442	948.03156	1582.46777				-737.05902	992.22473	1515.23657	-527.23206	495.61624	1563.03723				-742.27100	166.98096	1390.56458				
534	5.330																															-378.29013	1126.74854	1490.95044				-427.93500	948.59119	1587.70044				-733.07257	992.36005	1526.58167	-521.48114	495.47162	1576.40588				-736.92432	173.37764	1398.17078				
535	5.340																															-375.98276	1127.41577	1496.25122				-423.72382	950.76422	1592.83948				-728.23242	993.60773	1534.47205	-515.52014	495.75183	1588.94519				-730.55579	181.20169	1406.99207				
536	5.350																															-374.29190	1128.25500	1500.89795				-419.04709	951.92126	1598.34521				-723.46161	994.15436	1545.72327	-506.56830	497.15659	1603.54041				-723.69989	189.65681	1417.57666				
537	5.360																															-374.61273	1128.74683	1503.78223				-415.48221	954.65564	1602.63989				-718.78210	995.18781	1555.36475	-494.50238	500.53604	1614.32312				-717.68567	198.67874	1426.16650				
538	5.370																															-373.07053	1130.16992	1507.40381				-411.84692	956.44971	1607.51660				-713.74780	995.76697	1566.30823	-480.95801	502.52155	1624.79810				-711.34607	207.04866	1433.62939				
539	5.380																															-371.31601	1132.23816	1511.92700				-409.19696	958.02466	1608.39648				-709.04547	997.20776	1576.03308	-466.89746	503.37921	1635.68262				-703.55023	218.16898	1442.11011				
540	5.390																															-371.53000	1133.50867	1513.27588				-406.27515	959.51672	1610.68347				-704.07697	999.26807	1585.96179	-452.60037	503.64758	1645.03772				-697.08527	226.31969	1451.36218				
541	5.400																															-371.03027	1136.03918	1516.08313				-403.86188	961.90466	1612.16223				-699.27728	1001.68170	1594.79688	-438.07397	503.93829	1654.70349				-691.08069	234.60867	1461.08777				
542	5.410																															-370.70660	1138.34875	1518.43713				-401.54407	963.73309	1613.49805				-694.47729	1004.28754	1603.61975	-423.09485	505.02429	1662.61316				-684.76886	241.55598	1471.60388				
543	5.420																															-369.49231	1141.57874	1521.90125				-399.43222	964.85071	1613.70740				-689.86987	1006.89111	1612.63599	-411.47510	508.60040	1671.31226				-677.68835	246.58560	1482.88391				
544	5.430																															-370.06265	1143.66699	1523.10107				-397.15808	966.75134	1614.87354				-685.27942	1009.57739	1620.55969	-398.73877	514.04700	1678.51013				-669.50598	249.85387	1495.99353				
545	5.440																															-370.17535	1145.95227	1526.10352				-395.14764	969.77881	1615.22168				-680.81647	1012.14581	1628.44849	-385.81219	520.34833	1683.44421				-659.90607	252.47684	1509.10986				
546	5.450																															-369.72626	1148.82703	1528.10608				-392.88199	971.43854	1616.31274				-676.37543	1014.38696	1636.71240	-372.57550	527.26550	1684.51062				-650.07831	252.58612	1521.90625				
547	5.460																															-370.01193	1152.01465	1530.03821				-390.64334	973.36108	1615.74695				-672.00562	1016.39917	1644.31335	-360.88480	532.47052	1687.45532				-639.57086	251.26756	1536.80664				
548	5.470																															-369.20847	1154.98511	1532.84058				-388.03934	975.64990	1616.64795				-667.79321	1018.50208	1651.16760	-349.44635	538.26611	1688.59924				-627.69727	248.77202	1549.78711				
549	5.480																															-369.80838	1157.18237	1534.75415				-385.69580	978.00098	1615.37146				-663.55585	1020.54968	1658.79700	-338.54117	543.41949	1690.62805				-614.64490	245.52423	1564.21069				
550	5.490																															-369.60684	1159.46057	1536.96997				-385.84247	979.65326	1620.01526				-659.55750	1022.14813	1666.05420	-329.32901	548.40253	1690.96631				-602.64587	239.61876	1578.29871				
551	5.500																															-369.13248	1161.66687	1539.23499				-382.91626	980.60120	1621.20691				-655.82037	1023.67114	1672.51721	-319.98492	553.34369	1689.51331										
